<?xml version="1.0" encoding="UTF-8" standalone="no"?>
<!-- Created with Inkscape (http://www.inkscape.org/) -->

<svg
   xmlns:dc="http://purl.org/dc/elements/1.1/"
   xmlns:cc="http://creativecommons.org/ns#"
   xmlns:rdf="http://www.w3.org/1999/02/22-rdf-syntax-ns#"
   xmlns:svg="http://www.w3.org/2000/svg"
   xmlns="http://www.w3.org/2000/svg"
   version="1.1"
   width="379"
   height="379"
   id="svg3991">
  <defs
     id="defs3993" />
  <metadata
     id="metadata3996">
    <rdf:RDF>
      <cc:Work
         rdf:about="">
        <dc:format>image/svg+xml</dc:format>
        <dc:type
           rdf:resource="http://purl.org/dc/dcmitype/StillImage" />
        <dc:title></dc:title>
      </cc:Work>
    </rdf:RDF>
  </metadata>
  <g
     transform="translate(-164.78125,-142.71875)"
     id="layer1"
     style="display:inline">
    <path
       d="m 117.68608,229.50507 c -7.13394,-12.28194 -11.04027,-27.24856 -10.70845,-41.02802 l 0.11291,-4.68874 19.70622,14.86731 c 10.83842,8.17702 19.7379,15.02802 19.77663,15.22445 0.057,0.28925 -26.84648,18.03572 -27.342,18.03572 -0.0798,0 -0.77517,-1.08482 -1.54531,-2.41072 z"
       transform="translate(164.78125,142.71875)"
       id="path5446"
       style="fill:#ffffff;fill-opacity:1;fill-rule:nonzero;stroke:#ffffff;stroke-width:5;stroke-linecap:square;stroke-linejoin:miter;stroke-miterlimit:4;stroke-opacity:1;stroke-dasharray:none;stroke-dashoffset:0" />
    <path
       d="m 182.75442,230.42944 -21.12183,-15.96383 2.55041,-1.64004 c 8.52841,-5.48418 77.27283,-50.13304 77.63991,-50.42639 0.54594,-0.43629 1.74676,2.12078 3.4999,7.45283 4.53437,13.79099 3.82681,28.98621 -1.98319,42.58999 -5.4553,12.77325 -15.72504,23.60609 -28.39948,29.95664 -3.41232,1.70974 -9.5337,4.02955 -10.57056,4.00589 -0.27133,-0.006 -9.99815,-7.19498 -21.61516,-15.97509 l 0,0 z"
       transform="translate(164.78125,142.71875)"
       id="path5448"
       style="fill:#ffffff;fill-opacity:1;fill-rule:nonzero;stroke:#ffffff;stroke-width:5;stroke-linecap:square;stroke-linejoin:miter;stroke-miterlimit:4;stroke-opacity:1;stroke-dasharray:none;stroke-dashoffset:0" />
    <path
       d="M 434.29066,545.79977 A 106.78571,106.78571 0 0 1 367.89205,702.69328"
       transform="matrix(0.59857268,0,0,0.60267348,148.8048,-29.88771)"
       id="path3763"
       style="fill:none;stroke:#5eb3d8;stroke-width:13.31958008;stroke-linecap:butt;stroke-linejoin:miter;stroke-miterlimit:4;stroke-opacity:1;stroke-dasharray:none;stroke-dashoffset:0" />
    <path
       d="m 354.0625,223.99516 c -49.94116,0 -91.85504,34.50877 -103.53125,81.13623 -7.81473,-4.23038 -16.75566,-6.63813 -26.25,-6.63813 -30.6518,0 -55.5,25.01545 -55.5,55.87357 0,30.85812 24.8482,55.87358 55.5,55.87358 16.40334,0 30.4378,-12.17185 41.3125,-18.5616 19.19827,28.54348 51.64914,47.31636 88.46875,47.31636 19.75196,0 38.25464,-5.40606 54.125,-14.81783 13.71502,10.23375 30.7112,16.265 49.09375,16.265 45.56349,0 82.5,-37.18513 82.5,-83.05531 0,-45.87018 -36.93651,-83.05532 -82.5,-83.05532 -0.71193,0 -1.41739,-0.018 -2.125,0 -3.41822,0.0872 -6.79099,0.38705 -10.09375,0.88089 -18.79511,-30.73032 -52.52258,-51.21744 -91,-51.21744 z"
       id="path3761-9"
       style="fill:none;stroke:#5eb3d8;stroke-width:8;stroke-linecap:butt;stroke-linejoin:miter;stroke-miterlimit:4;stroke-opacity:1;stroke-dasharray:none;stroke-dashoffset:0" />
    <path
       d="m 448.57142,599.14789 a 106.78571,106.78571 0 1 1 -213.57143,0 106.78571,106.78571 0 1 1 213.57143,0 z"
       transform="matrix(0.80535118,0,0,0.81078518,78.130873,-154.57739)"
       id="path3763-4"
       style="fill:none;stroke:#5eb3d8;stroke-width:9.90021133;stroke-linecap:butt;stroke-linejoin:miter;stroke-miterlimit:4;stroke-opacity:1;stroke-dasharray:none;stroke-dashoffset:0" />
    <path
       d="M 250.53125,305.13139 408.1875,424.17734"
       id="path3839"
       style="fill:none;stroke:#5eb3d8;stroke-width:8;stroke-linecap:butt;stroke-linejoin:miter;stroke-miterlimit:4;stroke-opacity:1;stroke-dasharray:none;stroke-dashoffset:0" />
    <path
       d="M 265.59375,391.67881 445.0625,275.2126"
       id="path3841"
       style="fill:none;stroke:#5eb3d8;stroke-width:8;stroke-linecap:butt;stroke-linejoin:miter;stroke-miterlimit:4;stroke-opacity:1;stroke-dasharray:none;stroke-dashoffset:0" />
    <path
       d="m 260.36694,307.17938 c -4.64064,-3.56215 -4.68615,-3.61832 -4.35629,-5.37666 0.18335,-0.9773 1.24299,-4.17098 2.35478,-7.09707 6.76961,-17.81686 18.70725,-33.79655 34.03863,-45.56401 13.57919,-10.42258 30.44184,-17.4142 47.94832,-19.88041 6.51995,-0.9185 19.34396,-1.04454 25.64993,-0.25212 22.61627,2.84203 42.72924,12.40557 58.88087,27.99732 3.99853,3.85993 10.06599,10.87823 12.64474,14.62631 l 1.59134,2.31293 -5.08603,3.30049 c -2.79732,1.81526 -5.24613,3.29412 -5.4418,3.28635 -0.19568,-0.008 -1.60584,-1.75108 -3.1337,-3.874 -3.57794,-4.97148 -12.25691,-13.76948 -17.43573,-17.67486 -16.40372,-12.37015 -34.29752,-18.37335 -54.74641,-18.36691 -14.18119,0.004 -25.49924,2.55092 -38.93464,8.75992 -14.28396,6.60116 -28.56815,19.4459 -37.32339,33.56224 -4.77423,7.69765 -9.18164,17.83117 -10.69333,24.5861 -0.35291,1.57698 -0.78251,2.9543 -0.95466,3.06069 -0.17215,0.10639 -2.42334,-1.42645 -5.00263,-3.40631 l 0,0 z"
       id="path3884"
       style="fill:none;stroke:none" />
    <path
       d="m 383.37389,400.22249 -6.18579,-4.70257 1.18579,-0.52385 c 13.88126,-6.13231 23.44405,-13.80969 30.952,-24.84944 5.47298,-8.04751 8.87829,-16.09746 10.72665,-25.35714 2.7268,-13.66038 1.42362,-26.9019 -3.94805,-40.11585 -0.98412,-2.42085 -1.73429,-4.45253 -1.66705,-4.51483 0.14174,-0.13134 10.2541,-6.71264 10.93619,-7.11747 0.83659,-0.49652 4.7869,8.78377 6.68686,15.70916 3.88336,14.15493 4.11682,28.44832 0.69084,42.29657 -5.50207,22.24015 -20.3217,41.57848 -40.1864,52.43979 -1.48997,0.81466 -2.77568,1.47152 -2.85714,1.4597 -0.0815,-0.0118 -2.93171,-2.13766 -6.3339,-4.72407 l 0,0 z"
       id="path3954"
       style="fill:#5eb3d8;fill-opacity:1;fill-rule:nonzero;stroke:#5eb3d8;stroke-width:5;stroke-linecap:butt;stroke-linejoin:miter;stroke-miterlimit:4;stroke-opacity:1;stroke-dasharray:none;stroke-dashoffset:0" />
    <path
       d="m 448.66683,435.74915 c -9.78657,-1.13053 -18.79764,-3.90181 -27.43244,-8.43663 -5.13025,-2.6943 -8.66983,-5.07282 -17.29579,-11.62242 l -6.69252,-5.08155 2.76395,-1.7014 c 18.09072,-11.13611 31.52782,-27.78609 38.47069,-47.66923 5.06133,-14.49477 6.34106,-31.30437 3.54702,-46.59129 -1.34546,-7.3614 -3.95248,-15.49459 -7.11744,-22.20446 -1.56796,-3.32416 -1.8799,-4.26643 -1.51903,-4.58852 0.24978,-0.22292 3.34996,-2.27421 6.8893,-4.55842 l 6.43518,-4.15309 4.81482,-0.39098 c 21.96585,-1.78369 44.42618,6.50842 60.46048,22.32135 11.89464,11.73044 19.50289,26.35755 22.57205,43.39555 0.94127,5.22534 1.12817,16.87281 0.36712,22.8783 -3.30796,26.10305 -19.42207,48.88878 -42.87053,60.61992 -7.26126,3.63277 -13.89162,5.79881 -22.14286,7.23373 -5.49762,0.95605 -15.49178,1.21432 -21.25,0.54914 z"
       id="path3956"
       style="fill:#5eb3d8;fill-opacity:1;fill-rule:nonzero;stroke:#5eb3d8;stroke-width:5;stroke-linecap:butt;stroke-linejoin:miter;stroke-miterlimit:4;stroke-opacity:1;stroke-dasharray:none;stroke-dashoffset:0" />
    <path
       d="m 215.98826,405.34116 c -28.56444,-4.82646 -47.65946,-32.6295 -41.93006,-61.05167 4.15739,-20.6238 19.59905,-36.16163 40.32292,-40.57404 5.00447,-1.06553 14.30694,-1.16561 19.06214,-0.20509 8.97977,1.81387 12.69273,3.61449 22.28456,10.807 l 7.74445,5.80724 0.0231,10.29673 c 0.0271,12.06848 0.53385,16.09849 3.27075,26.01102 1.72109,6.23346 5.38184,14.83853 8.83049,20.75721 l 1.2736,2.18579 -7.40527,4.75894 c -4.07289,2.61741 -10.29812,6.62692 -13.83383,8.91001 -3.53572,2.28309 -7.39286,4.72506 -8.57143,5.42661 -5.41487,3.2232 -11.91009,5.94535 -16.39776,6.8723 -3.28561,0.67866 -10.65112,0.67764 -14.67367,-0.002 l 0,9e-5 z"
       id="path3958"
       style="fill:#5eb3d8;fill-opacity:1;fill-rule:nonzero;stroke:#5eb3d8;stroke-width:5;stroke-linecap:butt;stroke-linejoin:miter;stroke-miterlimit:4;stroke-opacity:1;stroke-dasharray:none;stroke-dashoffset:0" />
    <path
       d="m 347.41683,434.58668 c -14.46953,-1.19976 -25.98708,-4.30516 -38.21428,-10.30347 -11.23183,-5.51001 -21.20338,-12.92913 -30.23527,-22.49591 -2.94313,-3.11742 -7.46548,-8.87577 -7.16549,-9.12387 0.55574,-0.45959 9.33342,-6.04122 9.64515,-6.13325 0.18227,-0.0538 1.02907,0.78609 1.88177,1.86645 2.42877,3.07721 9.10869,9.80288 12.83812,12.92604 24.17794,20.2475 58.88866,26.15958 88.32037,15.04312 l 4.21323,-1.59135 5.87895,4.39424 5.87896,4.39424 -2.38481,1.20227 c -7.63955,3.85138 -18.74273,7.30907 -28.1567,8.7684 -6.93164,1.07452 -16.71759,1.53254 -22.5,1.05309 l 0,0 z"
       id="path3960"
       style="fill:#5eb3d8;fill-opacity:1;fill-rule:nonzero;stroke:#5eb3d8;stroke-width:5;stroke-linecap:butt;stroke-linejoin:miter;stroke-miterlimit:4;stroke-opacity:1;stroke-dasharray:none;stroke-dashoffset:0" />
    <path
       d="m 295.98826,334.24694 c -12.57143,-9.5254 -22.90412,-17.5979 -22.96153,-17.93889 -0.0574,-0.34098 0.45585,-2.8059 1.1406,-5.47759 3.66541,-14.30144 10.48959,-26.48858 20.7336,-37.02762 12.8668,-13.23737 28.60811,-21.34478 46.98019,-24.19668 5.6783,-0.88144 17.18559,-0.88612 22.85714,-0.009 12.81801,1.98168 23.48118,6.09723 34.06701,13.14847 4.58714,3.0555 8.07712,5.96502 12.55024,10.46283 3.6431,3.66322 9.81377,11.30364 9.80945,12.14589 -0.002,0.41561 -100.8211,65.92323 -101.72713,66.0977 -0.34426,0.0663 -10.1673,-7.14081 -23.44957,-17.20482 z"
       id="path3962"
       style="fill:#5eb3d8;fill-opacity:1;fill-rule:nonzero;stroke:#5eb3d8;stroke-width:5;stroke-linecap:butt;stroke-linejoin:miter;stroke-miterlimit:4;stroke-opacity:1;stroke-dasharray:none;stroke-dashoffset:0" />
    <path
       d="m 260.27397,307.26209 c -2.55357,-1.96037 -4.69617,-3.71167 -4.76134,-3.89177 -0.36485,-1.00834 3.85575,-12.10953 6.94863,-18.27656 13.89674,-27.70932 39.44751,-47.71575 69.59843,-54.49608 13.73945,-3.08972 30.29044,-3.09224 43.92857,-0.007 24.57521,5.56001 44.79871,18.79325 60.65669,39.6907 1.30846,1.72427 2.37902,3.28905 2.37902,3.47727 0,0.18823 -2.36606,1.88859 -5.25791,3.77859 l -5.25793,3.43637 -0.54565,-0.84042 c -5.85323,-9.01526 -16.83763,-19.60126 -27.15279,-26.16798 -6.5758,-4.18621 -17.15148,-8.66743 -25.37418,-10.75178 -9.08953,-2.30408 -20.79885,-3.21602 -30.19023,-2.35128 -38.32599,3.52899 -69.68116,30.57587 -79.43024,68.51631 -0.21452,0.83483 -0.50437,1.50206 -0.64412,1.48274 -0.13975,-0.0193 -2.34337,-1.63906 -4.89695,-3.59942 z"
       id="path3964"
       style="fill:#5eb3d8;fill-opacity:1;fill-rule:nonzero;stroke:#5eb3d8;stroke-width:5;stroke-linecap:butt;stroke-linejoin:miter;stroke-miterlimit:4;stroke-opacity:1;stroke-dasharray:none;stroke-dashoffset:0" />
    <path
       d="m 347.95255,413.38606 c -18.6634,-1.26636 -36.1715,-8.8578 -49.96478,-21.66451 -3.5648,-3.30983 -8.96954,-9.29577 -8.95533,-9.91835 0.005,-0.20397 6.73902,-4.72826 14.96527,-10.05399 l 14.95681,-9.68313 30.65347,23.14651 c 16.85941,12.73059 30.70091,23.28881 30.75888,23.46272 0.13905,0.41715 -6.30405,2.36258 -10.80718,3.26313 -6.92592,1.38507 -14.77694,1.91107 -21.60714,1.44762 l 0,0 z"
       id="path3966"
       style="fill:#5eb3d8;fill-opacity:1;fill-rule:nonzero;stroke:#5eb3d8;stroke-width:5;stroke-linecap:butt;stroke-linejoin:miter;stroke-miterlimit:4;stroke-opacity:1;stroke-dasharray:none;stroke-dashoffset:0" />
  </g>
  <g
     transform="translate(-164.78125,-142.71875)"
     id="g5338"
     style="display:inline">
    <path
       d="m 189.28125,88.71875 c -46.51953,0 -85.44431,32.09926 -96.3125,75.5 a 7.4308392,7.4308392 0 0 1 -10.75,4.71875 C 75.458217,165.27779 67.745016,163.21875 59.5,163.21875 c -26.609018,0 -48.0625,21.56805 -48.0625,48.4375 0,26.86945 21.453482,48.4375 48.0625,48.4375 12.727475,0 25.541561,-10.46799 37.5625,-17.53125 a 7.4308392,7.4308392 0 0 1 9.90625,2.25 c 17.87612,26.57774 48.01791,44.03125 82.3125,44.03125 18.39756,0 35.58006,-5.02578 50.34375,-13.78125 a 7.4308392,7.4308392 0 0 1 8.21875,0.4375 c 12.47559,9.30892 27.89485,14.78125 44.65625,14.78125 41.52016,0 75.0625,-33.74349 75.0625,-75.625 0,-41.88151 -33.53895,-75.59375 -75.0625,-75.59375 -0.83717,0 -1.48127,-0.0116 -1.9375,0 -3.11721,0.0795 -6.18992,0.33304 -9.1875,0.78125 A 7.4308392,7.4308392 0 0 1 273.9375,136.375 C 256.43976,107.7659 225.12109,88.71875 189.28125,88.71875 z"
       transform="matrix(0.97276073,0,0,0.97165006,169.94309,148.09106)"
       id="path5440"
       style="fill:none;stroke:#ffffff;stroke-width:19.54319763;stroke-linecap:square;stroke-linejoin:miter;stroke-miterlimit:4;stroke-opacity:1;stroke-dasharray:19.54319858, 58.62959575;stroke-dashoffset:39.08639717" />
  </g>
</svg>
