<?xml version="1.0" encoding="UTF-8" standalone="no"?>
<!-- Created with Inkscape (http://www.inkscape.org/) -->

<svg
   xmlns:dc="http://purl.org/dc/elements/1.1/"
   xmlns:cc="http://creativecommons.org/ns#"
   xmlns:rdf="http://www.w3.org/1999/02/22-rdf-syntax-ns#"
   xmlns:svg="http://www.w3.org/2000/svg"
   xmlns="http://www.w3.org/2000/svg"
   xmlns:xlink="http://www.w3.org/1999/xlink"
   version="1.1"
   width="128"
   height="128"
   id="svg3991">
  <defs
     id="defs3993">
    <linearGradient
       id="linearGradient5355">
      <stop
         id="stop5357"
         style="stop-color:#488aa5;stop-opacity:1"
         offset="0" />
      <stop
         id="stop5363"
         style="stop-color:#ffffff;stop-opacity:1"
         offset="0.50393701" />
      <stop
         id="stop5359"
         style="stop-color:#ffffff;stop-opacity:1"
         offset="1" />
    </linearGradient>
    <linearGradient
       id="linearGradient5333">
      <stop
         id="stop5335"
         style="stop-color:#4e94b2;stop-opacity:1"
         offset="0" />
      <stop
         id="stop5337"
         style="stop-color:#5eb4d9;stop-opacity:1"
         offset="1" />
    </linearGradient>
    <linearGradient
       id="linearGradient5315">
      <stop
         id="stop5317"
         style="stop-color:#5eb4d9;stop-opacity:1"
         offset="0" />
      <stop
         id="stop5323"
         style="stop-color:#4d92b0;stop-opacity:1"
         offset="0.5" />
      <stop
         id="stop5319"
         style="stop-color:#5eb4d9;stop-opacity:1"
         offset="1" />
    </linearGradient>
    <linearGradient
       id="linearGradient5301">
      <stop
         id="stop5303"
         style="stop-color:#5eb3d8;stop-opacity:1"
         offset="0" />
      <stop
         id="stop5305"
         style="stop-color:#5eb3d8;stop-opacity:0"
         offset="1" />
    </linearGradient>
    <linearGradient
       id="linearGradient3849">
      <stop
         id="stop3851"
         style="stop-color:#5eb4d9;stop-opacity:1"
         offset="0" />
      <stop
         id="stop3853"
         style="stop-color:#489abc;stop-opacity:1"
         offset="1" />
    </linearGradient>
    <radialGradient
       cx="466.32397"
       cy="357.31619"
       r="71.577873"
       fx="466.32397"
       fy="357.31619"
       id="radialGradient5299"
       xlink:href="#linearGradient3849"
       gradientUnits="userSpaceOnUse"
       gradientTransform="matrix(1,0,0,1.1358767,0,-48.550933)"
       spreadMethod="pad" />
    <radialGradient
       cx="224.95586"
       cy="354.35019"
       r="54.414356"
       fx="224.95586"
       fy="354.35019"
       id="radialGradient5313"
       xlink:href="#linearGradient3849"
       gradientUnits="userSpaceOnUse"
       gradientTransform="matrix(1,0,0,0.99241034,0,2.6893983)"
       spreadMethod="pad" />
    <radialGradient
       cx="224.95586"
       cy="354.35019"
       r="54.414356"
       fx="224.95586"
       fy="354.35019"
       id="radialGradient5459"
       xlink:href="#linearGradient3849"
       gradientUnits="userSpaceOnUse"
       gradientTransform="matrix(0.33258392,0,0,0.33005972,110.953,348.12259)"
       spreadMethod="pad" />
    <radialGradient
       cx="466.32397"
       cy="357.31619"
       r="71.577873"
       fx="466.32397"
       fy="357.31619"
       id="radialGradient5462"
       xlink:href="#linearGradient3849"
       gradientUnits="userSpaceOnUse"
       gradientTransform="matrix(0.33258392,0,0,0.37777433,110.953,331.08088)"
       spreadMethod="pad" />
    <radialGradient
       cx="-62.5"
       cy="15.5"
       r="10"
       fx="-62.5"
       fy="15.5"
       id="radialGradient5616"
       xlink:href="#linearGradient3849"
       gradientUnits="userSpaceOnUse"
       gradientTransform="matrix(2.5178683,-1.5274905,0.71499242,1.1785714,83.784388,-98.23602)" />
    <radialGradient
       cx="-62.5"
       cy="15.5"
       r="10"
       fx="-62.5"
       fy="15.5"
       id="radialGradient5616-6"
       xlink:href="#linearGradient3849-3"
       gradientUnits="userSpaceOnUse" />
    <linearGradient
       id="linearGradient3849-3">
      <stop
         id="stop3851-2"
         style="stop-color:#5eb4d9;stop-opacity:1"
         offset="0" />
      <stop
         id="stop3853-2"
         style="stop-color:#438099;stop-opacity:1"
         offset="1" />
    </linearGradient>
    <radialGradient
       cx="-62.5"
       cy="15.5"
       r="10"
       fx="-62.5"
       fy="15.5"
       id="radialGradient5633"
       xlink:href="#linearGradient3849-3"
       gradientUnits="userSpaceOnUse"
       gradientTransform="matrix(2.8337112,-1.1163098,0.64999972,1.6500003,269.3132,338.87439)" />
    <radialGradient
       cx="-62.5"
       cy="15.5"
       r="10"
       fx="-62.5"
       fy="15.5"
       id="radialGradient5616-8"
       xlink:href="#linearGradient3849-8"
       gradientUnits="userSpaceOnUse" />
    <linearGradient
       id="linearGradient3849-8">
      <stop
         id="stop3851-1"
         style="stop-color:#5eb4d9;stop-opacity:1"
         offset="0" />
      <stop
         id="stop3853-0"
         style="stop-color:#438099;stop-opacity:1"
         offset="1" />
    </linearGradient>
    <radialGradient
       cx="-62.5"
       cy="15.5"
       r="10"
       fx="-62.5"
       fy="15.5"
       id="radialGradient5633-1"
       xlink:href="#linearGradient3849-8"
       gradientUnits="userSpaceOnUse"
       gradientTransform="matrix(2.4592243,-2.1619257,1.1298643,1.2852383,238.46988,304.1772)" />
    <linearGradient
       id="linearGradient3849-8-5">
      <stop
         id="stop3851-1-5"
         style="stop-color:#5eb4d9;stop-opacity:1"
         offset="0" />
      <stop
         id="stop3853-0-8"
         style="stop-color:#438099;stop-opacity:1"
         offset="1" />
    </linearGradient>
    <linearGradient
       id="linearGradient3849-3-4">
      <stop
         id="stop3851-2-5"
         style="stop-color:#5eb4d9;stop-opacity:1"
         offset="0" />
      <stop
         id="stop3853-2-3"
         style="stop-color:#438099;stop-opacity:1"
         offset="1" />
    </linearGradient>
    <radialGradient
       cx="-62.5"
       cy="15.5"
       r="10"
       fx="-62.5"
       fy="15.5"
       id="radialGradient5616-4"
       xlink:href="#linearGradient3849-87"
       gradientUnits="userSpaceOnUse" />
    <linearGradient
       id="linearGradient3849-87">
      <stop
         id="stop3851-6"
         style="stop-color:#5eb4d9;stop-opacity:1"
         offset="0" />
      <stop
         id="stop3853-5"
         style="stop-color:#438099;stop-opacity:1"
         offset="1" />
    </linearGradient>
    <linearGradient
       id="linearGradient3849-39">
      <stop
         id="stop3851-5"
         style="stop-color:#5eb4d9;stop-opacity:1"
         offset="0" />
      <stop
         id="stop3853-6"
         style="stop-color:#438099;stop-opacity:1"
         offset="1" />
    </linearGradient>
    <radialGradient
       cx="-125"
       cy="93"
       r="5"
       fx="-125"
       fy="93"
       id="radialGradient5794-1"
       xlink:href="#linearGradient3849-39"
       gradientUnits="userSpaceOnUse"
       gradientTransform="matrix(1,0,0,3,164.78125,212.71875)" />
    <linearGradient
       id="linearGradient5815">
      <stop
         id="stop5817"
         style="stop-color:#5eb4d9;stop-opacity:1"
         offset="0" />
      <stop
         id="stop5819"
         style="stop-color:#438099;stop-opacity:1"
         offset="1" />
    </linearGradient>
    <radialGradient
       cx="-124.99998"
       cy="93.000008"
       r="5"
       fx="-124.99998"
       fy="93.000008"
       id="radialGradient5860"
       xlink:href="#linearGradient3849"
       gradientUnits="userSpaceOnUse"
       gradientTransform="matrix(1.0000133,-3.0000104,5.5317141,1.8439224,-349.66658,-54.767284)" />
    <linearGradient
       id="linearGradient3849-8-0">
      <stop
         id="stop3851-1-4"
         style="stop-color:#5eb4d9;stop-opacity:1"
         offset="0" />
      <stop
         id="stop3853-0-1"
         style="stop-color:#438099;stop-opacity:1"
         offset="1" />
    </linearGradient>
    <filter
       color-interpolation-filters="sRGB"
       id="filter4536">
      <feGaussianBlur
         id="feGaussianBlur4538"
         stdDeviation="0.48721413" />
    </filter>
    <filter
       color-interpolation-filters="sRGB"
       id="filter4540">
      <feGaussianBlur
         id="feGaussianBlur4542"
         stdDeviation="0.48672462" />
    </filter>
    <radialGradient
       cx="-339.53857"
       cy="93.911697"
       r="6.5874023"
       fx="-339.53857"
       fy="93.911697"
       id="radialGradient4594"
       xlink:href="#linearGradient3849"
       gradientUnits="userSpaceOnUse"
       gradientTransform="matrix(1,0,0,0.99599733,0,0.3758974)" />
    <radialGradient
       cx="-339.53857"
       cy="93.911697"
       r="6.5874023"
       fx="-339.53857"
       fy="93.911697"
       id="radialGradient4594-2"
       xlink:href="#linearGradient3849-4"
       gradientUnits="userSpaceOnUse"
       gradientTransform="matrix(1,0,0,0.99599733,0,0.3758974)" />
    <linearGradient
       id="linearGradient3849-4">
      <stop
         id="stop3851-22"
         style="stop-color:#5eb4d9;stop-opacity:1"
         offset="0" />
      <stop
         id="stop3853-05"
         style="stop-color:#489abc;stop-opacity:1"
         offset="1" />
    </linearGradient>
    <radialGradient
       cx="-339.53857"
       cy="93.911697"
       r="6.5874023"
       fx="-339.53857"
       fy="93.911697"
       id="radialGradient4610"
       xlink:href="#linearGradient3849-4"
       gradientUnits="userSpaceOnUse"
       gradientTransform="matrix(1,0,0,0.99599733,0,0.3758974)" />
    <linearGradient
       id="linearGradient4612">
      <stop
         id="stop4614"
         style="stop-color:#5eb4d9;stop-opacity:1"
         offset="0" />
      <stop
         id="stop4616"
         style="stop-color:#489abc;stop-opacity:1"
         offset="1" />
    </linearGradient>
    <radialGradient
       cx="-339.53857"
       cy="93.911697"
       r="6.5874023"
       fx="-339.53857"
       fy="93.911697"
       id="radialGradient4618"
       xlink:href="#linearGradient3849-4"
       gradientUnits="userSpaceOnUse"
       gradientTransform="matrix(1,0,0,0.99599733,0,0.3758974)" />
    <linearGradient
       id="linearGradient4620">
      <stop
         id="stop4622"
         style="stop-color:#5eb4d9;stop-opacity:1"
         offset="0" />
      <stop
         id="stop4624"
         style="stop-color:#489abc;stop-opacity:1"
         offset="1" />
    </linearGradient>
    <radialGradient
       cx="-339.53857"
       cy="93.911697"
       r="6.5874023"
       fx="-339.53857"
       fy="93.911697"
       id="radialGradient4626"
       xlink:href="#linearGradient3849-4"
       gradientUnits="userSpaceOnUse"
       gradientTransform="matrix(1,0,0,0.99599733,0,0.3758974)" />
    <linearGradient
       id="linearGradient4628">
      <stop
         id="stop4630"
         style="stop-color:#5eb4d9;stop-opacity:1"
         offset="0" />
      <stop
         id="stop4632"
         style="stop-color:#489abc;stop-opacity:1"
         offset="1" />
    </linearGradient>
    <radialGradient
       cx="-339.53857"
       cy="93.911697"
       r="6.5874023"
       fx="-339.53857"
       fy="93.911697"
       id="radialGradient4640"
       xlink:href="#linearGradient3849-4"
       gradientUnits="userSpaceOnUse"
       gradientTransform="matrix(1,0,0,0.99599733,0,0.3758974)" />
    <filter
       color-interpolation-filters="sRGB"
       id="filter4699">
      <feGaussianBlur
         id="feGaussianBlur4701"
         stdDeviation="0.065742187" />
    </filter>
    <radialGradient
       cx="9.7085409"
       cy="-2.1589346"
       r="47.252499"
       fx="9.7085409"
       fy="-2.1589346"
       id="radialGradient16605"
       xlink:href="#linearGradient3849"
       gradientUnits="userSpaceOnUse"
       gradientTransform="matrix(-0.05708693,-0.7854188,1.0046826,-0.07302377,0.47727476,0.35461673)" />
    <radialGradient
       cx="-66.956139"
       cy="15.612359"
       r="10"
       fx="-66.956139"
       fy="15.612359"
       id="radialGradient16607"
       xlink:href="#linearGradient3849"
       gradientUnits="userSpaceOnUse"
       gradientTransform="matrix(2.0000002,-3,2.775234,1.8501562,50.36559,196.96503)" />
    <radialGradient
       cx="-339.53857"
       cy="93.911697"
       r="6.5874023"
       fx="-339.53857"
       fy="93.911697"
       id="radialGradient16609"
       xlink:href="#linearGradient3849"
       gradientUnits="userSpaceOnUse"
       gradientTransform="matrix(0.45672822,-0.99599697,0.90534706,0.41515946,-269.4844,-283.25602)" />
    <radialGradient
       cx="-131.29213"
       cy="33.978859"
       r="22.5"
       fx="-131.29213"
       fy="33.978859"
       id="radialGradient16611"
       xlink:href="#linearGradient3849"
       gradientUnits="userSpaceOnUse"
       gradientTransform="matrix(0.5555557,-0.88888881,1.3412252,0.83826603,-107.63321,-107.18743)" />
    <radialGradient
       cx="-132.83835"
       cy="106.4389"
       r="25.006205"
       fx="-132.83835"
       fy="106.4389"
       id="radialGradient16613"
       xlink:href="#linearGradient3849"
       gradientUnits="userSpaceOnUse"
       gradientTransform="matrix(-0.51409058,-0.90430346,2.0304184,-1.1542797,-414.40644,100.73409)" />
    <filter
       color-interpolation-filters="sRGB"
       id="filter16641">
      <feGaussianBlur
         stdDeviation="0.065742187"
         id="feGaussianBlur16643" />
    </filter>
    <radialGradient
       cx="5.084496"
       cy="-4.4422359"
       r="47.252499"
       fx="5.084496"
       fy="-4.4422359"
       id="radialGradient17898"
       xlink:href="#linearGradient3849"
       gradientUnits="userSpaceOnUse"
       gradientTransform="matrix(0.32355462,-0.8804268,0.94550686,0.34747137,0.30541511,0.39751265)" />
    <radialGradient
       cx="5.084496"
       cy="-4.4422359"
       r="47.252499"
       fx="5.084496"
       fy="-4.4422359"
       id="radialGradient18008"
       xlink:href="#linearGradient3849"
       gradientUnits="userSpaceOnUse"
       gradientTransform="matrix(0.18738071,-0.509883,0.54757293,0.20123166,-253.63135,111.81565)" />
    <radialGradient
       cx="10.267025"
       cy="-6.0412164"
       r="47.252499"
       fx="10.267025"
       fy="-6.0412164"
       id="radialGradient17964"
       xlink:href="#linearGradient3849-5"
       gradientUnits="userSpaceOnUse"
       gradientTransform="matrix(-0.00129389,-0.63943474,0.58804095,-0.0011899,-267.30287,115.46023)" />
    <linearGradient
       id="linearGradient3849-5">
      <stop
         id="stop3851-15"
         style="stop-color:#5eb4d9;stop-opacity:1"
         offset="0" />
      <stop
         id="stop3853-9"
         style="stop-color:#489abc;stop-opacity:1"
         offset="1" />
    </linearGradient>
    <radialGradient
       cx="10.267025"
       cy="-6.0412164"
       r="47.252499"
       fx="10.267025"
       fy="-6.0412164"
       id="radialGradient18033-5"
       xlink:href="#linearGradient3849-5-6"
       gradientUnits="userSpaceOnUse"
       gradientTransform="matrix(0.10409601,-0.63090608,0.58019777,0.09572941,-257.7973,227.02143)" />
    <linearGradient
       id="linearGradient3849-5-6">
      <stop
         id="stop3851-15-2"
         style="stop-color:#5eb4d9;stop-opacity:1"
         offset="0" />
      <stop
         id="stop3853-9-2"
         style="stop-color:#489abc;stop-opacity:1"
         offset="1" />
    </linearGradient>
    <radialGradient
       cx="10.267025"
       cy="-6.0412164"
       r="47.252499"
       fx="10.267025"
       fy="-6.0412164"
       id="radialGradient18070"
       xlink:href="#linearGradient3849-5"
       gradientUnits="userSpaceOnUse"
       gradientTransform="matrix(0.63929923,0.01322716,-0.01216403,0.58791633,-258.56042,227.17179)" />
    <radialGradient
       cx="10.267025"
       cy="-6.0412164"
       r="47.252499"
       fx="10.267025"
       fy="-6.0412164"
       id="radialGradient18070-0"
       xlink:href="#linearGradient3849-5-68"
       gradientUnits="userSpaceOnUse"
       gradientTransform="matrix(0.63929923,0.01322716,-0.01216403,0.58791633,-258.56042,227.17179)" />
    <linearGradient
       id="linearGradient3849-5-68">
      <stop
         id="stop3851-15-3"
         style="stop-color:#5eb4d9;stop-opacity:1"
         offset="0" />
      <stop
         id="stop3853-9-28"
         style="stop-color:#489abc;stop-opacity:1"
         offset="1" />
    </linearGradient>
    <radialGradient
       cx="10.267025"
       cy="-6.0412164"
       r="47.252499"
       fx="10.267025"
       fy="-6.0412164"
       id="radialGradient18087"
       xlink:href="#linearGradient3849-5-68"
       gradientUnits="userSpaceOnUse"
       gradientTransform="matrix(0.63929923,0.01322716,-0.01216403,0.58791633,-258.56042,227.17179)" />
    <filter
       color-interpolation-filters="sRGB"
       id="filter18262">
      <feGaussianBlur
         id="feGaussianBlur18264"
         stdDeviation="0.375" />
    </filter>
    <filter
       color-interpolation-filters="sRGB"
       id="filter18266">
      <feGaussianBlur
         id="feGaussianBlur18268"
         stdDeviation="0.375" />
    </filter>
    <filter
       color-interpolation-filters="sRGB"
       id="filter18270">
      <feGaussianBlur
         id="feGaussianBlur18272"
         stdDeviation="0.375" />
    </filter>
    <filter
       color-interpolation-filters="sRGB"
       id="filter18310">
      <feGaussianBlur
         id="feGaussianBlur18312"
         stdDeviation="0.525" />
    </filter>
    <filter
       color-interpolation-filters="sRGB"
       id="filter18314">
      <feGaussianBlur
         id="feGaussianBlur18316"
         stdDeviation="0.55" />
    </filter>
    <filter
       color-interpolation-filters="sRGB"
       id="filter18318">
      <feGaussianBlur
         id="feGaussianBlur18320"
         stdDeviation="0.13148437" />
    </filter>
    <filter
       x="-0.12"
       y="-0.039999999"
       width="1.24"
       height="1.08"
       color-interpolation-filters="sRGB"
       id="filter18330">
      <feGaussianBlur
         id="feGaussianBlur18332"
         stdDeviation="0.5" />
    </filter>
    <filter
       color-interpolation-filters="sRGB"
       id="filter18334">
      <feGaussianBlur
         id="feGaussianBlur18336"
         stdDeviation="0.46334227" />
    </filter>
    <radialGradient
       cx="5.084496"
       cy="-4.4422359"
       r="47.252499"
       fx="5.084496"
       fy="-4.4422359"
       id="radialGradient18008-4"
       xlink:href="#linearGradient3849-30"
       gradientUnits="userSpaceOnUse"
       gradientTransform="matrix(0.18738071,-0.509883,0.54757293,0.20123166,-269.46546,105.89655)" />
    <linearGradient
       id="linearGradient3849-30">
      <stop
         id="stop3851-27"
         style="stop-color:#5eb4d9;stop-opacity:1"
         offset="0" />
      <stop
         id="stop3853-4"
         style="stop-color:#489abc;stop-opacity:1"
         offset="1" />
    </linearGradient>
    <filter
       color-interpolation-filters="sRGB"
       id="filter18372">
      <feGaussianBlur
         id="feGaussianBlur18374"
         stdDeviation="0.54935995" />
    </filter>
  </defs>
  <metadata
     id="metadata3996">
    <rdf:RDF>
      <cc:Work
         rdf:about="">
        <dc:format>image/svg+xml</dc:format>
        <dc:type
           rdf:resource="http://purl.org/dc/dcmitype/StillImage" />
        <dc:title></dc:title>
      </cc:Work>
    </rdf:RDF>
  </metadata>
  <path
     d="m -250.63815,85.219112 -2.17053,3.603072 -0.32557,1.454252 0.0217,2.235641 -4.25423,0.520926 -0.49922,-2.192231 -0.67287,-1.32402 -2.97362,-2.97362 -2.19223,0.8248 -0.23875,4.189114 0.36898,1.454251 1.08527,1.953473 -3.53796,2.452694 -1.45425,-1.714715 -1.21549,-0.846505 -4.01548,-1.258905 -1.54107,1.73642 1.71472,3.84183 0.99844,1.085271 1.86665,1.25898 -1.97518,3.79843 -2.0837,-0.8248 -1.47596,-0.21706 -4.1457,0.75969 -0.56434,2.27905 3.3209,2.58292 1.38914,0.49922 2.23564,0.23876 0,4.29764 -2.23564,0.23876 -1.38914,0.49922 -3.3209,2.58292 0.56434,2.27905 4.1457,0.75969 1.47596,-0.21705 2.0837,-0.8248 1.97518,3.79841 -1.86665,1.25891 -0.99844,1.08526 -1.71472,3.84183 1.54107,1.73642 4.01548,-1.2589 1.21549,-0.84651 1.45425,-1.71471 3.53796,2.45269 -1.08527,1.95347 -0.36898,1.45426 0.23875,4.18911 2.19223,0.8248 2.97362,-2.97362 0.67287,-1.32402 0.49922,-2.19223 4.25423,0.52092 -0.0217,2.23565 0.32557,1.45425 2.17053,3.60307 2.32246,-0.28217 1.2372,-4.01547 -0.0217,-1.47596 -0.56434,-2.17052 4.01548,-1.51937 0.99844,1.99688 0.97673,1.12868 3.60308,2.17052 1.91006,-1.32402 -0.75969,-4.1457 -0.69456,-1.30232 -1.51937,-1.6496 2.84339,-3.21237 1.82324,1.30231 1.38913,0.54263 4.18912,0.26047 1.08526,-2.062 -2.60463,-3.2992 -1.2372,-0.84651 -2.10541,-0.75968 1.04185,-4.16741 2.21394,0.30387 1.47596,-0.15193 3.84182,-1.71472 0,-2.34416 -3.84182,-1.71472 -1.47596,-0.15194 -2.21394,0.30388 -1.04185,-4.16741 2.10541,-0.75968 1.2372,-0.84651 2.60463,-3.29925 -1.08526,-2.062034 -4.18912,0.260463 -1.38913,0.542631 -1.82324,1.30236 -2.84339,-3.212422 1.51937,-1.649599 0.69456,-1.302315 0.75969,-4.145703 -1.91006,-1.324021 -3.60308,2.170526 -0.97673,1.128673 -0.99844,1.996883 -4.01548,-1.519368 0.56434,-2.170525 0.0217,-1.475957 -1.2372,-4.015472 -2.32246,-0.282168 z m -1.91006,22.812308 c 2.61996,0 4.75345,2.13349 4.75345,4.75345 0,2.61996 -2.13349,4.75345 -4.75345,4.75345 -2.61996,0 -4.73175,-2.13349 -4.73175,-4.75345 0,-2.61996 2.11179,-4.75345 4.73175,-4.75345 z"
     id="path17736-7"
     style="opacity:0.75;fill:#284b5a;fill-opacity:1;stroke:none;filter:url(#filter18372)" />
  <g
     transform="translate(-164.78125,-393.71875)"
     id="layer1"
     style="display:inline">
    <flowRoot
       transform="matrix(4.1914114,0,0,4.1914114,1311.5376,36.596184)"
       id="flowRoot4580-9"
       xml:space="preserve"
       style="font-size:18px;font-style:normal;font-weight:bold;line-height:125%;letter-spacing:0px;word-spacing:0px;opacity:0.75;fill:#284b5a;fill-opacity:1;stroke:none;display:inline;filter:url(#filter18318);font-family:Bitstream Vera Sans;-inkscape-font-specification:Bitstream Vera Sans Bold"><flowRegion
         id="flowRegion4582-7"
         style="fill:url(#radialGradient4640);fill-opacity:1"><rect
           width="78.791901"
           height="119.70308"
           x="-346.48233"
           y="82.543137"
           id="rect4584-7"
           style="font-weight:bold;fill:#284b5a;fill-opacity:1;-inkscape-font-specification:Bitstream Vera Sans Bold" /></flowRegion><flowPara
         id="flowPara4586-7"
         style="fill:#284b5a;fill-opacity:1">X</flowPara></flowRoot>    <path
       d="m -120.85786,88.857864 a 20,20 0 1 1 -28.28428,2e-6"
       transform="matrix(0.99770553,0,0,1.0002408,175.42184,404.6929)"
       id="path5776-2"
       style="opacity:0.76999996;fill:none;stroke:#284b5a;stroke-width:8;stroke-linecap:butt;stroke-miterlimit:4;stroke-opacity:1;stroke-dasharray:none;filter:url(#filter18334)" />
    <rect
       width="10"
       height="30"
       x="35.78159"
       y="477.71841"
       id="rect5786-6"
       style="opacity:0.75;fill:#284b5a;fill-opacity:1;stroke:none;filter:url(#filter18330)" />
    <path
       d="m 15.78125,402.71875 0,60 45,-30 -45,-30"
       id="path5733-5"
       style="opacity:0.75;fill:#284b5a;fill-opacity:1;fill-rule:nonzero;stroke:none;display:inline;filter:url(#filter18310)" />
    <rect
       width="15"
       height="15"
       x="95.78125"
       y="402.71875"
       id="rect5608-3"
       style="opacity:0.75;fill:#284b5a;fill-opacity:1;fill-rule:nonzero;stroke:none;display:inline;filter:url(#filter18270)" />
    <rect
       width="15"
       height="15"
       x="95.78125"
       y="427.71875"
       id="rect5608-9-7"
       style="opacity:0.75;fill:#284b5a;fill-opacity:1;fill-rule:nonzero;stroke:none;display:inline;filter:url(#filter18266)" />
    <rect
       width="15"
       height="15"
       x="95.78125"
       y="452.71875"
       id="rect5608-2-0"
       style="opacity:0.75;fill:#284b5a;fill-opacity:1;fill-rule:nonzero;stroke:none;display:inline;filter:url(#filter18262)" />
    <path
       d="m 229.55829,423.12298 c -16.54298,0 -30.42693,11.47787 -34.29468,26.98656 -2.5886,-1.40705 -5.55029,-2.20788 -8.6953,-2.20788 -10.15338,0 -18.38433,8.32033 -18.38433,18.584 0,10.26365 8.23095,18.584 18.38433,18.584 5.43361,0 10.08253,-4.04846 13.68477,-6.17374 6.35943,9.49381 17.10873,15.73781 29.30521,15.73781 6.54283,0 12.67185,-1.79811 17.92891,-4.92852 4.54308,3.40381 10.17306,5.40983 16.26226,5.40983 15.0929,0 27.3281,-12.36809 27.3281,-27.62487 0,-15.25677 -12.2352,-27.62486 -27.3281,-27.62486 -0.23583,0 -0.46949,-0.006 -0.70389,0 -1.13229,0.029 -2.24951,0.12872 -3.34355,0.29298 -6.22588,-10.22116 -17.39807,-17.03532 -30.14373,-17.03532 z"
       id="path3761-9-0-7"
       style="opacity:0.75;fill:none;stroke:#20566c;stroke-width:2.65542555;stroke-linecap:butt;stroke-linejoin:miter;stroke-miterlimit:4;stroke-opacity:1;stroke-dasharray:none;stroke-dashoffset:0;display:inline;filter:url(#filter4536)" />
    <path
       d="m 228.25839,421.0219 c -16.51634,0 -30.37793,11.4782 -34.23946,26.98735 -2.58443,-1.40709 -5.54135,-2.20794 -8.6813,-2.20794 -10.13702,0 -18.35472,8.32057 -18.35472,18.58454 0,10.26396 8.2177,18.58454 18.35472,18.58454 5.42487,0 10.0663,-4.04858 13.66274,-6.17392 6.34918,9.49409 17.08118,15.73827 29.25802,15.73827 6.53229,0 12.65144,-1.79817 17.90004,-4.92866 4.53576,3.40392 10.15667,5.40999 16.23607,5.40999 15.06859,0 27.28409,-12.36846 27.28409,-27.62568 0,-15.25722 -12.2155,-27.62566 -27.28409,-27.62566 -0.23545,0 -0.46874,-0.006 -0.70276,0 -1.13047,0.029 -2.24589,0.12872 -3.33817,0.29297 -6.21585,-10.22145 -17.37005,-17.0358 -30.09518,-17.0358 z"
       id="path3761-9-0"
       style="opacity:0.8;fill:none;stroke:#60cccc;stroke-width:2.65332532;stroke-linecap:butt;stroke-linejoin:miter;stroke-miterlimit:4;stroke-opacity:1;stroke-dasharray:none;stroke-dashoffset:0;display:inline;filter:url(#filter4540)" />
    <path
       d="m 204.89709,471.0238 c -2.37264,-4.08478 -3.67182,-9.06244 -3.56146,-13.64526 l 0.0375,-1.5594 6.55397,4.94462 c 3.60469,2.71955 6.56451,4.99808 6.57739,5.06341 0.019,0.0962 -8.9287,5.99839 -9.09351,5.99839 -0.0265,0 -0.25781,-0.36079 -0.51394,-0.80176 z"
       id="path5446"
       style="fill:#ffffff;fill-opacity:1;fill-rule:nonzero;stroke:#ffffff;stroke-width:1.66291964;stroke-linecap:square;stroke-linejoin:miter;stroke-miterlimit:4;stroke-opacity:1;stroke-dasharray:none;stroke-dashoffset:0" />
    <path
       d="m 226.53777,471.33123 -7.02478,-5.30932 0.84823,-0.54545 c 2.83641,-1.82395 25.6997,-16.67344 25.82178,-16.771 0.18157,-0.14511 0.58095,0.70533 1.16401,2.47869 1.50806,4.58666 1.27274,9.64034 -0.65958,14.16474 -1.81434,4.24818 -5.22989,7.85101 -9.44521,9.9631 -1.13488,0.56863 -3.17075,1.34016 -3.51559,1.33229 -0.0902,-0.002 -3.32523,-2.39293 -7.18886,-5.31305 l 0,0 z"
       id="path5448"
       style="fill:#ffffff;fill-opacity:1;fill-rule:nonzero;stroke:#ffffff;stroke-width:1.66291964;stroke-linecap:square;stroke-linejoin:miter;stroke-miterlimit:4;stroke-opacity:1;stroke-dasharray:none;stroke-dashoffset:0" />
    <path
       d="M 434.29066,545.79977 A 106.78571,106.78571 0 0 1 367.89205,702.69328"
       transform="matrix(0.19907565,0,0,0.20043951,160.44308,337.28797)"
       id="path3763"
       style="fill:none;stroke:#5eb3d8;stroke-width:13.31958008;stroke-linecap:butt;stroke-linejoin:miter;stroke-miterlimit:4;stroke-opacity:1;stroke-dasharray:none;stroke-dashoffset:0" />
    <path
       d="m 228.70849,421.72533 c -16.60962,0 -30.54951,11.47706 -34.43282,26.9846 -2.59906,-1.40695 -5.57267,-2.20773 -8.73033,-2.20773 -10.1943,0 -18.45841,8.31973 -18.45841,18.58265 0,10.26291 8.26411,18.58265 18.45841,18.58265 5.45548,0 10.12312,-4.04816 13.73987,-6.17329 6.38504,9.49311 17.17767,15.73666 29.42328,15.73666 6.56919,0 12.72288,-1.79796 18.00111,-4.92817 4.56139,3.40358 10.21405,5.40948 16.32779,5.40948 15.15368,0 27.43817,-12.36718 27.43817,-27.62286 0,-15.25568 -12.28449,-27.62286 -27.43817,-27.62286 -0.23678,0 -0.4714,-0.006 -0.70674,0 -1.13685,0.029 -2.25857,0.12872 -3.35702,0.29297 -6.25095,-10.22041 -17.46816,-17.0341 -30.26514,-17.0341 z"
       id="path3761-9"
       style="fill:none;stroke:#5eb3d8;stroke-width:2.66067147;stroke-linecap:butt;stroke-linejoin:miter;stroke-miterlimit:4;stroke-opacity:1;stroke-dasharray:none;stroke-dashoffset:0" />
    <path
       d="m 448.57142,599.14789 a 106.78571,106.78571 0 1 1 -213.57143,0 106.78571,106.78571 0 1 1 213.57143,0 z"
       transform="matrix(0.26784685,0,0,0.26965411,136.93807,295.81819)"
       id="path3763-4"
       style="fill:none;stroke:#5eb3d8;stroke-width:9.90021133;stroke-linecap:butt;stroke-linejoin:miter;stroke-miterlimit:4;stroke-opacity:1;stroke-dasharray:none;stroke-dashoffset:0" />
    <path
       d="M 194.27567,448.70993 246.7096,488.3027"
       id="path3839"
       style="fill:none;stroke:#5eb3d8;stroke-width:2.66067147;stroke-linecap:butt;stroke-linejoin:miter;stroke-miterlimit:4;stroke-opacity:1;stroke-dasharray:none;stroke-dashoffset:0" />
    <path
       d="m 199.28521,477.49421 59.68842,-38.73478"
       id="path3841"
       style="fill:none;stroke:#5eb3d8;stroke-width:2.66067147;stroke-linecap:butt;stroke-linejoin:miter;stroke-miterlimit:4;stroke-opacity:1;stroke-dasharray:none;stroke-dashoffset:0" />
    <path
       d="m 197.54686,449.39106 c -1.5434,-1.18471 -1.55854,-1.20339 -1.44883,-1.78819 0.061,-0.32503 0.41339,-1.3872 0.78316,-2.36037 2.25146,-5.9256 6.22173,-11.24019 11.3207,-15.15386 4.51622,-3.46638 10.12446,-5.79168 15.94684,-6.6119 2.16843,-0.30548 6.43349,-0.3474 8.53075,-0.0838 7.52181,0.94521 14.21106,4.12589 19.58283,9.31146 1.32985,1.28375 3.34779,3.61792 4.20544,4.86447 l 0.52925,0.76924 -1.69153,1.09769 c -0.93034,0.60373 -1.74478,1.09558 -1.80985,1.09299 -0.0651,-0.003 -0.53408,-0.58238 -1.04222,-1.28843 -1.18997,-1.65343 -4.07645,-4.57951 -5.79884,-5.87837 -5.45562,-4.11412 -11.40681,-6.11068 -18.20778,-6.10854 -4.71644,0.001 -8.48064,0.84839 -12.94903,2.91341 -4.75062,2.19544 -9.50131,6.46739 -12.41316,11.16226 -1.58784,2.56011 -3.05367,5.93036 -3.55643,8.17694 -0.11738,0.52448 -0.26025,0.98255 -0.31751,1.01794 -0.0572,0.0354 -0.80596,-0.47442 -1.66379,-1.13289 l 0,0 z"
       id="path3884"
       style="fill:none;stroke:none" />
    <path
       d="m 238.45699,480.3357 -2.05729,-1.56399 0.39437,-0.17423 c 4.61669,-2.03951 7.79712,-4.59288 10.29414,-8.26452 1.82022,-2.67648 2.95278,-5.35376 3.56751,-8.43338 0.90689,-4.54322 0.47347,-8.94714 -1.31306,-13.34189 -0.3273,-0.80513 -0.57679,-1.48084 -0.55443,-1.50156 0.0471,-0.0437 3.41035,-2.23251 3.6372,-2.36715 0.27824,-0.16514 1.59205,2.92134 2.22394,5.22461 1.29154,4.7077 1.36919,9.46146 0.22976,14.06716 -1.8299,7.39672 -6.75867,13.82833 -13.36535,17.44063 -0.49554,0.27094 -0.92314,0.48941 -0.95024,0.48547 -0.0271,-0.004 -0.97504,-0.71095 -2.10655,-1.57115 l 0,0 z"
       id="path3954"
       style="fill:#5eb3d8;fill-opacity:1;fill-rule:nonzero;stroke:#5eb3d8;stroke-width:1.66291964;stroke-linecap:butt;stroke-linejoin:miter;stroke-miterlimit:4;stroke-opacity:1;stroke-dasharray:none;stroke-dashoffset:0" />
    <path
       d="m 260.17237,492.1513 c -3.25485,-0.376 -6.25179,-1.29768 -9.12359,-2.80589 -1.70623,-0.89608 -2.88344,-1.68714 -5.7523,-3.86543 l -2.22582,-1.69004 0.91924,-0.56586 c 6.01669,-3.70369 10.48565,-9.2412 12.79474,-15.85402 1.68331,-4.82072 2.10893,-10.41133 1.17968,-15.49551 -0.44748,-2.44828 -1.31453,-5.15325 -2.36715,-7.38485 -0.52148,-1.10556 -0.62522,-1.41894 -0.5052,-1.52606 0.0831,-0.0741 1.11414,-0.75637 2.29127,-1.51606 l 2.14024,-1.38125 1.60133,-0.13004 c 7.30549,-0.59322 14.77543,2.1646 20.10818,7.42373 3.95597,3.90135 6.48635,8.76609 7.5071,14.43266 0.31305,1.73786 0.37521,5.61162 0.1221,7.60895 -1.10017,8.68146 -6.45947,16.25962 -14.25805,20.16121 -2.41498,1.2082 -4.62013,1.92859 -7.36436,2.40583 -1.82842,0.31796 -5.15232,0.40386 -7.06741,0.18263 z"
       id="path3956"
       style="fill:url(#radialGradient5462);fill-opacity:1;fill-rule:nonzero;stroke:#5eb3d8;stroke-width:1.66291964;stroke-linecap:butt;stroke-linejoin:miter;stroke-miterlimit:4;stroke-opacity:1;stroke-dasharray:none;stroke-dashoffset:0" />
    <path
       d="m 182.78722,482.03809 c -9.50007,-1.6052 -15.85077,-10.85205 -13.94526,-20.3048 1.38268,-6.85915 6.51833,-12.02678 13.41075,-13.49428 1.66441,-0.35437 4.75826,-0.38766 6.33976,-0.0682 2.98653,0.60326 4.2214,1.20212 7.41149,3.59423 l 2.57568,1.93139 0.008,3.42453 c 0.009,4.01378 0.17755,5.3541 1.0878,8.65085 0.57241,2.07315 1.78992,4.93505 2.93688,6.90351 l 0.42358,0.72696 -2.46287,1.58275 c -1.35458,0.87051 -3.42499,2.20401 -4.60091,2.96332 -1.17593,0.75932 -2.45875,1.57148 -2.85072,1.80481 -1.8009,1.07198 -3.96111,1.97733 -5.45363,2.28561 -1.09275,0.22572 -3.5424,0.22538 -4.88023,-6.6e-4 l 0,3e-5 z"
       id="path3958"
       style="fill:url(#radialGradient5459);fill-opacity:1;fill-rule:nonzero;stroke:#5eb3d8;stroke-width:1.66291964;stroke-linecap:butt;stroke-linejoin:miter;stroke-miterlimit:4;stroke-opacity:1;stroke-dasharray:none;stroke-dashoffset:0" />
    <path
       d="m 226.49825,491.76468 c -4.81233,-0.39902 -8.64288,-1.43183 -12.70945,-3.42677 -3.73553,-1.83254 -7.05191,-4.30002 -10.05577,-7.48177 -0.97884,-1.03681 -2.4829,-2.95194 -2.38313,-3.03446 0.18483,-0.15285 3.10415,-2.00921 3.20783,-2.03982 0.0606,-0.0179 0.34225,0.26144 0.62584,0.62075 0.80777,1.02343 3.02941,3.26028 4.26976,4.299 8.04119,6.73399 19.58542,8.70025 29.37393,5.0031 l 1.40125,-0.52926 1.95525,1.46145 1.95524,1.46146 -0.79314,0.39985 c -2.5408,1.28091 -6.23354,2.43088 -9.36447,2.91623 -2.30535,0.35737 -5.56,0.5097 -7.48314,0.35024 l 0,0 z"
       id="path3960"
       style="fill:#4e94b2;fill-opacity:1;fill-rule:nonzero;stroke:#5eb3d8;stroke-width:1.66291964;stroke-linecap:butt;stroke-linejoin:miter;stroke-miterlimit:4;stroke-opacity:1;stroke-dasharray:none;stroke-dashoffset:0" />
    <path
       d="m 209.39394,458.3933 c -4.18106,-3.168 -7.61755,-5.85278 -7.63664,-5.96619 -0.0191,-0.1134 0.15161,-0.9332 0.37935,-1.82176 1.21905,-4.75643 3.48866,-8.80967 6.89566,-12.31479 4.27929,-4.40253 9.51459,-7.09893 15.62485,-8.04742 1.88851,-0.29316 5.71565,-0.29471 7.60192,-0.003 4.26306,0.65908 7.80946,2.02784 11.33014,4.37297 1.52561,1.01621 2.68632,1.98387 4.17401,3.47977 1.21163,1.21833 3.2639,3.75941 3.26246,4.03953 -6.6e-4,0.13822 -33.53147,21.925 -33.8328,21.98303 -0.1145,0.0221 -3.38148,-2.37492 -7.79895,-5.72205 z"
       id="path3962"
       style="fill:#5eb4d9;fill-opacity:1;fill-rule:nonzero;stroke:#5eb3d8;stroke-width:1.66291964;stroke-linecap:butt;stroke-linejoin:miter;stroke-miterlimit:4;stroke-opacity:1;stroke-dasharray:none;stroke-dashoffset:0" />
    <path
       d="m 197.51594,449.41857 c -0.84928,-0.65199 -1.56187,-1.23444 -1.58355,-1.29434 -0.12134,-0.33536 1.28236,-4.02743 2.311,-6.07849 4.62184,-9.21567 13.11961,-15.86949 23.14732,-18.12452 4.56952,-1.02759 10.07412,-1.02843 14.60994,-0.002 8.17332,1.84917 14.89933,6.25034 20.17344,13.20049 0.43517,0.57347 0.79122,1.09389 0.79122,1.15648 0,0.0626 -0.78691,0.62812 -1.74869,1.2567 l -1.74871,1.14288 -0.18147,-0.27951 c -1.94669,-2.99833 -5.59993,-6.51906 -9.03058,-8.70304 -2.18701,-1.39227 -5.70431,-2.88265 -8.43905,-3.57587 -3.02303,-0.7663 -6.91736,-1.0696 -10.04078,-0.782 -12.74661,1.17368 -23.17483,10.16904 -26.41722,22.78742 -0.0713,0.27765 -0.16775,0.49956 -0.21423,0.49314 -0.0465,-0.006 -0.77936,-0.54513 -1.62864,-1.19711 z"
       id="path3964"
       style="fill:#4e94b2;fill-opacity:1;fill-rule:nonzero;stroke:#5eb3d8;stroke-width:1.66291964;stroke-linecap:butt;stroke-linejoin:miter;stroke-miterlimit:4;stroke-opacity:1;stroke-dasharray:none;stroke-dashoffset:0" />
    <path
       d="m 226.67642,484.7137 c -6.20714,-0.42117 -12.03006,-2.94597 -16.61748,-7.20527 -1.18559,-1.1008 -2.98312,-3.09162 -2.9784,-3.29869 0.002,-0.0678 2.24129,-1.57254 4.97721,-3.34379 l 4.97439,-3.22045 10.19486,7.69815 c 5.60716,4.23399 10.21062,7.74549 10.2299,7.80333 0.0463,0.13873 -2.09662,0.78575 -3.59429,1.08526 -2.30345,0.46065 -4.91457,0.63559 -7.18619,0.48146 l 0,0 z"
       id="path3966"
       style="fill:#5eb3d8;fill-opacity:1;fill-rule:nonzero;stroke:#5eb3d8;stroke-width:1.66291964;stroke-linecap:butt;stroke-linejoin:miter;stroke-miterlimit:4;stroke-opacity:1;stroke-dasharray:none;stroke-dashoffset:0" />
    <path
       d="m 202.44277,454.87691 14.64922,11.06159 28.01565,-18.18075"
       id="path5429"
       style="fill:none;stroke:#4e94b2;stroke-width:1.66291964;stroke-linecap:square;stroke-linejoin:miter;stroke-miterlimit:4;stroke-opacity:1;stroke-dasharray:none;stroke-dashoffset:20" />
    <rect
       width="15"
       height="15"
       x="-70"
       y="8"
       transform="translate(164.78125,393.71875)"
       id="rect5608"
       style="fill:url(#radialGradient5616);fill-opacity:1;fill-rule:nonzero;stroke:none" />
    <rect
       width="15"
       height="15"
       x="94.78125"
       y="426.71875"
       id="rect5608-9"
       style="fill:url(#radialGradient5633);fill-opacity:1;fill-rule:nonzero;stroke:none;display:inline" />
    <rect
       width="15"
       height="15"
       x="94.78125"
       y="451.71875"
       id="rect5608-2"
       style="fill:url(#radialGradient5633-1);fill-opacity:1;fill-rule:nonzero;stroke:none;display:inline" />
    <path
       d="m -150,8 0,60 45,-30 -45,-30"
       transform="translate(164.78125,393.71875)"
       id="path5733"
       style="fill:url(#radialGradient16611);fill-opacity:1;fill-rule:nonzero;stroke:none" />
    <path
       d="m -120.85786,88.857864 a 20,20 0 1 1 -28.28428,2e-6"
       transform="translate(174.78125,403.71875)"
       id="path5776"
       style="fill:none;stroke:url(#radialGradient16613);stroke-width:8;stroke-linecap:butt;stroke-miterlimit:4;stroke-dasharray:none" />
    <rect
       width="10"
       height="30"
       ry="0"
       x="34.78125"
       y="476.71875"
       id="rect5786"
       style="fill:url(#radialGradient5860);fill-opacity:1;stroke:none" />
    <rect
       width="55"
       height="55"
       x="-54.018749"
       y="402.81876"
       id="rect5608-2-0-7"
       style="opacity:0.75;fill:#284b5a;fill-opacity:1;fill-rule:nonzero;stroke:none;display:inline;filter:url(#filter18314)" />
    <rect
       width="55"
       height="55"
       x="-55.21875"
       y="401.71875"
       id="rect5608-2-9"
       style="fill:url(#radialGradient16607);fill-opacity:1;fill-rule:nonzero;stroke:none;display:inline" />
    <flowRoot
       transform="matrix(4.1914114,0,0,4.1914114,1310.3166,35.596179)"
       id="flowRoot4580"
       xml:space="preserve"
       style="font-size:18px;font-style:normal;font-weight:bold;line-height:125%;letter-spacing:0px;word-spacing:0px;fill:url(#radialGradient16609);fill-opacity:1;stroke:none;font-family:Bitstream Vera Sans;-inkscape-font-specification:Bitstream Vera Sans Bold"><flowRegion
         id="flowRegion4582"
         style="fill:url(#radialGradient4594);fill-opacity:1"><rect
           width="78.791901"
           height="119.70308"
           x="-346.48233"
           y="82.543137"
           id="rect4584"
           style="font-weight:bold;fill:url(#radialGradient4594);fill-opacity:1;-inkscape-font-specification:Bitstream Vera Sans Bold" /></flowRegion><flowPara
         id="flowPara4586"
         style="fill:url(#radialGradient4594);fill-opacity:1">X</flowPara></flowRoot>  </g>
  <g
     transform="translate(-164.78125,-393.71875)"
     id="g5338"
     style="display:none">
    <path
       d="m 189.28125,88.71875 c -46.51953,0 -85.44431,32.09926 -96.3125,75.5 a 7.4308392,7.4308392 0 0 1 -10.75,4.71875 C 75.458217,165.27779 67.745016,163.21875 59.5,163.21875 c -26.609018,0 -48.0625,21.56805 -48.0625,48.4375 0,26.86945 21.453482,48.4375 48.0625,48.4375 12.727475,0 25.541561,-10.46799 37.5625,-17.53125 a 7.4308392,7.4308392 0 0 1 9.90625,2.25 c 17.87612,26.57774 48.01791,44.03125 82.3125,44.03125 18.39756,0 35.58006,-5.02578 50.34375,-13.78125 a 7.4308392,7.4308392 0 0 1 8.21875,0.4375 c 12.47559,9.30892 27.89485,14.78125 44.65625,14.78125 41.52016,0 75.0625,-33.74349 75.0625,-75.625 0,-41.88151 -33.53895,-75.59375 -75.0625,-75.59375 -0.83717,0 -1.48127,-0.0116 -1.9375,0 -3.11721,0.0795 -6.18992,0.33304 -9.1875,0.78125 A 7.4308392,7.4308392 0 0 1 273.9375,136.375 C 256.43976,107.7659 225.12109,88.71875 189.28125,88.71875 z"
       transform="matrix(0.97276073,0,0,0.97165006,169.94309,148.09106)"
       id="path5440"
       style="fill:none;stroke:#ffffff;stroke-width:19.54319763;stroke-linecap:square;stroke-linejoin:miter;stroke-miterlimit:4;stroke-opacity:1;stroke-dasharray:19.54319858, 58.62959575;stroke-dashoffset:0" />
  </g>
  <g
     transform="translate(-164.78125,-393.71875)"
     id="g4772"
     style="display:none">
    <path
       d="m 478.37326,396.33802 -66.56475,66.56475 -23.02726,-23.02725 -19.25174,19.25174 32.65313,32.65312 9.62587,9.62587 9.62586,-9.62587 76.19063,-76.19062 -19.25174,-19.25174 z"
       id="path4798"
       style="font-size:medium;font-style:normal;font-variant:normal;font-weight:normal;font-stretch:normal;text-indent:0;text-align:start;text-decoration:none;line-height:normal;letter-spacing:normal;word-spacing:normal;text-transform:none;direction:ltr;block-progression:tb;writing-mode:lr-tb;text-anchor:start;baseline-shift:baseline;opacity:0.75;color:#000000;fill:#ffffff;fill-opacity:1;stroke:#ffffff;stroke-width:15;stroke-miterlimit:4;stroke-opacity:1;stroke-dasharray:none;marker:none;visibility:visible;display:inline;overflow:visible;enable-background:accumulate;font-family:Sans;-inkscape-font-specification:Sans" />
    <path
       d="m 379.15538,449.50139 32.65313,32.65312 76.19062,-76.19062"
       id="path4802"
       style="fill:none;stroke:#00cc00;stroke-width:24.99999809;stroke-linecap:butt;stroke-linejoin:miter;stroke-miterlimit:4;stroke-opacity:1;stroke-dasharray:none;stroke-dashoffset:0" />
  </g>
  <g
     transform="translate(-164.78125,-393.71875)"
     id="g4700"
     style="display:none">
    <path
       d="m 403.625,392.875 -17.6875,17.6875 36.15625,36.15625 L 385.9375,482.875 403.625,500.5625 439.78125,464.40625 475.9375,500.5625 493.625,482.875 457.46875,446.71875 493.625,410.5625 475.9375,392.875 439.78125,429.03125 403.625,392.875 z"
       id="path4732"
       style="font-size:medium;font-style:normal;font-variant:normal;font-weight:normal;font-stretch:normal;text-indent:0;text-align:start;text-decoration:none;line-height:normal;letter-spacing:normal;word-spacing:normal;text-transform:none;direction:ltr;block-progression:tb;writing-mode:lr-tb;text-anchor:start;baseline-shift:baseline;opacity:0.75;color:#000000;fill:none;stroke:#ffffff;stroke-width:25;stroke-opacity:1;marker:none;visibility:visible;display:inline;overflow:visible;enable-background:accumulate;font-family:Sans;-inkscape-font-specification:Sans" />
    <path
       d="m 394.78125,401.71875 90,90 m -90,0 90,-90"
       id="path4734"
       style="fill:none;stroke:#ff4000;stroke-width:25;stroke-linecap:butt;stroke-linejoin:miter;stroke-miterlimit:4;stroke-opacity:1;stroke-dasharray:none;stroke-dashoffset:0" />
  </g>
  <path
     d="m -251.63822,84.019349 -2.17053,3.603072 -0.32557,1.454252 0.0217,2.235641 -4.25423,0.520926 -0.49922,-2.192231 -0.67287,-1.32402 -2.97362,-2.97362 -2.19223,0.8248 -0.23875,4.189114 0.36898,1.454251 1.08527,1.953473 -3.53796,2.452694 -1.45425,-1.714715 -1.21549,-0.846505 -4.01548,-1.258905 -1.54107,1.73642 1.71472,3.84183 0.99844,1.085263 1.86665,1.258901 -1.97518,3.79842 -2.0837,-0.8248 -1.47596,-0.21705 -4.1457,0.75968 -0.56434,2.27906 3.3209,2.58292 1.38914,0.49922 2.23564,0.23876 0,4.29764 -2.23564,0.23876 -1.38914,0.49922 -3.3209,2.58292 0.56434,2.27905 4.1457,0.75969 1.47596,-0.21705 2.0837,-0.8248 1.97518,3.79841 -1.86665,1.25891 -0.99844,1.08526 -1.71472,3.84183 1.54107,1.73642 4.01548,-1.2589 1.21549,-0.84651 1.45425,-1.71471 3.53796,2.45269 -1.08527,1.95347 -0.36898,1.45426 0.23875,4.18911 2.19223,0.8248 2.97362,-2.97362 0.67287,-1.32402 0.49922,-2.19223 4.25423,0.52092 -0.0217,2.23565 0.32557,1.45425 2.17053,3.60307 2.32246,-0.28217 1.2372,-4.01547 -0.0217,-1.47596 -0.56434,-2.17052 4.01548,-1.51937 0.99844,1.99688 0.97673,1.12868 3.60308,2.17052 1.91006,-1.32402 -0.75969,-4.1457 -0.69456,-1.30232 -1.51937,-1.6496 2.84339,-3.21237 1.82324,1.30231 1.38913,0.54263 4.18912,0.26047 1.08526,-2.062 -2.60463,-3.2992 -1.2372,-0.84651 -2.10541,-0.75968 1.04185,-4.16741 2.21394,0.30387 1.47596,-0.15193 3.84182,-1.71472 0,-2.34416 -3.84182,-1.71472 -1.47596,-0.15194 -2.21394,0.30388 -1.04185,-4.16741 2.10541,-0.75968 1.2372,-0.84651 2.60463,-3.299197 -1.08526,-2.062 -4.18912,0.260463 -1.38913,0.542631 -1.82324,1.302317 -2.84339,-3.212379 1.51937,-1.649599 0.69456,-1.302315 0.75969,-4.145703 -1.91006,-1.324021 -3.60308,2.170526 -0.97673,1.128673 -0.99844,1.996883 -4.01548,-1.519368 0.56434,-2.170525 0.0217,-1.475957 -1.2372,-4.015472 -2.32246,-0.282168 z m -1.91006,22.812221 c 2.61996,0 4.75345,2.13349 4.75345,4.75345 0,2.61996 -2.13349,4.75345 -4.75345,4.75345 -2.61996,0 -4.73175,-2.13349 -4.73175,-4.75345 0,-2.61996 2.11179,-4.75345 4.73175,-4.75345 z"
     id="path17736"
     style="fill:url(#radialGradient18008);fill-opacity:1;stroke:none" />
  <path
     d="m -230.50705,224.51113 -3.89503,-1.61828 -1.50272,-0.13117 -2.22264,0.35121 -1.1662,-4.15758 2.12498,-0.81074 1.2322,-0.87178 2.51147,-3.39205 -1.151,-2.07605 -4.20692,0.38401 -1.40042,0.58026 -1.793,1.36286 -2.95073,-3.1748 1.49217,-1.69845 0.66167,-1.32645 0.65898,-4.19906 -1.95015,-1.26655 -3.59088,2.25285 -0.90488,1.17199 -1.0013,2.03829 -4.08486,-1.40154 0.53267,-2.22347 0.007,-1.48493 -1.36938,-4.03365 -2.36902,-0.22759 -2.08691,3.70985 -0.29473,1.4631 0.10376,2.25823 -4.29952,0.61833 -0.56774,-2.1915 -0.69508,-1.32076 -3.07425,-2.93603 -2.1735,0.91244 -0.14627,4.25161 0.42559,1.42266 1.1332,1.95232 -3.51546,2.55772 -1.50417,-1.67797 -1.22941,-0.86506 -4.10669,-1.11426 -1.48327,1.76032 1.84649,3.83874 1.00865,1.08623 1.94125,1.20469 -1.93649,3.87764 -2.10439,-0.80236 -1.50273,-0.13117 -4.1402,0.84798 -0.51932,2.31627 3.42298,2.50702 1.397,0.49367 2.26288,0.14814 0.11897,4.33975 -2.23154,0.28936 -1.40486,0.54932 -3.27669,2.68124 0.61201,2.27985 4.19907,0.65897 1.44934,-0.24 2.08071,-0.89909 2.12488,3.79871 -1.83729,1.27451 -1.00212,1.15441 -1.61828,3.89502 1.60587,1.72649 4.00271,-1.36493 1.19682,-0.89826 1.42141,-1.75143 3.62171,2.35216 -1.03668,2.01181 -0.32566,1.46755 0.35308,4.21138 2.22813,0.78456 2.9051,-3.0698 0.65722,-1.35737 0.43987,-2.21012 4.32259,0.42021 0.007,2.24064 0.36819,1.46248 2.28378,3.58643 2.34636,-0.36901 1.11872,-4.07575 -0.0544,-1.47604 -0.6296,-2.1826 3.99361,-1.64777 1.07578,1.99215 1.04403,1.11272 3.65243,2.12674 1.91229,-1.41159 -0.87892,-4.13575 -0.75695,-1.31186 -1.55714,-1.60721 2.77672,-3.30391 1.88828,1.27544 1.397,0.49367 4.25162,0.14628 1.02333,-2.10461 -2.68123,-3.27669 -1.28238,-0.7943 -2.12198,-0.70512 0.90643,-4.23465 2.2453,0.24538 1.48917,-0.18259 3.80781,-1.84204 -0.0552,-2.35992 z m -17.28528,-0.98701 -3.98575,0.60477 c -0.97807,-2.49132 -3.30326,-4.24489 -5.9748,-4.44475 l -0.56939,-3.95927 c 4.8791,-0.0403 9.15647,3.12527 10.52994,7.79925 z m 0.43636,3.47325 c -0.13651,4.71916 -3.26208,8.82925 -7.82169,10.15432 l -0.5694,-3.95927 c 2.38954,-0.91934 4.10051,-3.07612 4.43627,-5.59472 l 3.95482,-0.60033 z m -7.07634,-0.90819 c 0.31162,2.11766 -1.16188,4.10604 -3.27949,4.41807 -2.11767,0.31163 -4.07509,-1.16633 -4.38714,-3.28393 -0.31162,-2.11768 1.13539,-4.07064 3.25301,-4.38269 2.11767,-0.31163 4.10159,1.13093 4.41362,3.24855 z m -4.21861,11.49886 c -4.56719,-0.14403 -8.54241,-3.12937 -9.97721,-7.4683 l 3.95927,-0.5694 c 0.98639,2.17872 3.04668,3.7201 5.41316,4.05196 l 0.60478,3.98574 z m -3.12681,-21.30309 0.57829,4.02113 c -2.2771,1.04965 -3.82383,3.27104 -4.02951,5.7888 l -3.95926,0.5694 c -0.0289,-4.72872 2.96391,-8.89035 7.41048,-10.37933 z"
     id="path17736-3"
     style="fill:url(#radialGradient18070);fill-opacity:1;stroke:none" />
  <path
     d="m -230.50705,224.51113 -3.89503,-1.61828 -1.50272,-0.13117 -2.22264,0.35121 -1.1662,-4.15758 2.12498,-0.81074 1.2322,-0.87178 2.51147,-3.39205 -1.151,-2.07605 -4.20692,0.38401 -1.40042,0.58026 -1.793,1.36286 -2.95073,-3.1748 1.49217,-1.69845 0.66167,-1.32645 0.65898,-4.19906 -1.95015,-1.26655 -3.59088,2.25285 -0.90488,1.17199 -1.0013,2.03829 -4.08486,-1.40154 0.53267,-2.22347 0.007,-1.48493 -1.36938,-4.03365 -2.36902,-0.22759 -2.08691,3.70985 -0.29473,1.4631 0.10376,2.25823 -4.29952,0.61833 -0.56774,-2.1915 -0.69508,-1.32076 -3.07425,-2.93603 -2.1735,0.91244 -0.14627,4.25161 0.42559,1.42266 1.1332,1.95232 -3.51546,2.55772 -1.50417,-1.67797 -1.22941,-0.86506 -4.10669,-1.11426 -1.48327,1.76032 1.84649,3.83874 1.00865,1.08623 1.94125,1.20469 -1.93649,3.87764 -2.10439,-0.80236 -1.50273,-0.13117 -4.1402,0.84798 -0.51932,2.31627 3.42298,2.50702 1.397,0.49367 2.26288,0.14814 0.11897,4.33975 -2.23154,0.28936 -1.40486,0.54932 -3.27669,2.68124 0.61201,2.27985 4.19907,0.65897 1.44934,-0.24 2.08071,-0.89909 2.12488,3.79871 -1.83729,1.27451 -1.00212,1.15441 -1.61828,3.89502 1.60587,1.72649 4.00271,-1.36493 1.19682,-0.89826 1.42141,-1.75143 3.62171,2.35216 -1.03668,2.01181 -0.32566,1.46755 0.35308,4.21138 2.22813,0.78456 2.9051,-3.0698 0.65722,-1.35737 0.43987,-2.21012 4.32259,0.42021 0.007,2.24064 0.36819,1.46248 2.28378,3.58643 2.34636,-0.36901 1.11872,-4.07575 -0.0544,-1.47604 -0.6296,-2.1826 3.99361,-1.64777 1.07578,1.99215 1.04403,1.11272 3.65243,2.12674 1.91229,-1.41159 -0.87892,-4.13575 -0.75695,-1.31186 -1.55714,-1.60721 2.77672,-3.30391 1.88828,1.27544 1.397,0.49367 4.25162,0.14628 1.02333,-2.10461 -2.68123,-3.27669 -1.28238,-0.7943 -2.12198,-0.70512 0.90643,-4.23465 2.2453,0.24538 1.48917,-0.18259 3.80781,-1.84204 -0.0552,-2.35992 z m -17.28528,-0.98701 -3.98575,0.60477 c -0.97807,-2.49132 -3.30326,-4.24489 -5.9748,-4.44475 l -0.56939,-3.95927 c 4.8791,-0.0403 9.15647,3.12527 10.52994,7.79925 z m 0.43636,3.47325 c -0.13651,4.71916 -3.26208,8.82925 -7.82169,10.15432 l -0.5694,-3.95927 c 2.38954,-0.91934 4.10051,-3.07612 4.43627,-5.59472 l 3.95482,-0.60033 z m -7.07634,-0.90819 c 0.31162,2.11766 -1.16188,4.10604 -3.27949,4.41807 -2.11767,0.31163 -4.07509,-1.16633 -4.38714,-3.28393 -0.31162,-2.11768 1.13539,-4.07064 3.25301,-4.38269 2.11767,-0.31163 4.10159,1.13093 4.41362,3.24855 z m -4.21861,11.49886 c -4.56719,-0.14403 -8.54241,-3.12937 -9.97721,-7.4683 l 3.95927,-0.5694 c 0.98639,2.17872 3.04668,3.7201 5.41316,4.05196 l 0.60478,3.98574 z m -3.12681,-21.30309 0.57829,4.02113 c -2.2771,1.04965 -3.82383,3.27104 -4.02951,5.7888 l -3.95926,0.5694 c -0.0289,-4.72872 2.96391,-8.89035 7.41048,-10.37933 z"
     id="path17736-3-7"
     style="fill:url(#radialGradient18087);fill-opacity:1;stroke:none" />
</svg>
